<svg xmlns="http://www.w3.org/2000/svg" width="64" height="64" viewBox="0 0 64 64">
    <g fill="none" fill-rule="evenodd">
        <g fill="#FFC321">
            <path d="M32 64C14.327 64 0 49.673 0 32 0 14.327 14.327 0 32 0c17.673 0 32 14.327 32 32 0 17.673-14.327 32-32 32zm0-2.667C48.2 61.333 61.333 48.2 61.333 32S48.2 2.667 32 2.667 2.667 15.8 2.667 32 15.8 61.333 32 61.333z"/>
            <path d="M31.97 39.133c-1.509 0-2.773 1.278-2.773 2.802 0 1.525 1.264 2.803 2.773 2.803 1.452 0 2.772-1.278 2.705-2.736.067-1.603-1.186-2.87-2.705-2.87zM31.282 19.458c-1.32.38-2.14 1.592-2.14 3.06.067.886.122 1.783.188 2.668l.566 10.056c.067 1.144.943 1.973 2.074 1.973 1.13 0 2.018-.885 2.073-2.04 0-.695 0-1.334.067-2.04.122-2.164.255-4.328.377-6.491.066-1.402.188-2.803.255-4.204 0-.505-.067-.953-.255-1.402a2.77 2.77 0 0 0-3.205-1.58z"/>
        </g>
    </g>
</svg>
