<svg xmlns="http://www.w3.org/2000/svg" width="64" height="64" viewBox="0 0 64 64">
    <g fill="none" fill-rule="evenodd">
        <path fill="#FF4953" d="M32 64C14.327 64 0 49.673 0 32 0 14.327 14.327 0 32 0c17.673 0 32 14.327 32 32 0 17.673-14.327 32-32 32zm0-2.667C48.2 61.333 61.333 48.2 61.333 32S48.2 2.667 32 2.667 2.667 15.8 2.667 32 15.8 61.333 32 61.333z"/>
        <path fill="#F44336" fill-rule="nonzero" d="M43.191 20.809a1.772 1.772 0 0 0-2.507 0L32 29.493l-8.684-8.684a1.772 1.772 0 0 0-2.507 2.507L29.493 32l-8.684 8.684a1.772 1.772 0 0 0 2.507 2.507L32 34.507l8.684 8.684a1.772 1.772 0 1 0 2.507-2.507L34.507 32l8.684-8.684a1.772 1.772 0 0 0 0-2.507z"/>
        <path d="M10.667 10.667h42.666v42.666H10.667z"/>
    </g>
</svg>
