<svg xmlns="http://www.w3.org/2000/svg" width="64" height="64" viewBox="0 0 64 64">
    <g fill="none" fill-rule="evenodd">
        <path fill="#7ED321" d="M32 64C14.327 64 0 49.673 0 32 0 14.327 14.327 0 32 0c17.673 0 32 14.327 32 32 0 17.673-14.327 32-32 32zm0-2.667C48.2 61.333 61.333 48.2 61.333 32S48.2 2.667 32 2.667 2.667 15.8 2.667 32 15.8 61.333 32 61.333z"/>
        <path d="M10.667 10.667h42.666v42.666H10.667z"/>
        <path fill="#7ED321" fill-rule="nonzero" d="M26.667 39.413l-6.161-6.16a1.778 1.778 0 0 0-2.51-.005l-.005.005a1.773 1.773 0 0 0-.004 2.511l7.423 7.423c.694.695 1.82.695 2.514 0l18.823-18.823a1.773 1.773 0 0 0-2.507-2.507L26.666 39.413z"/>
    </g>
</svg>
